<svg width="31" height="30" viewBox="0 0 31 30" fill="none" xmlns="http://www.w3.org/2000/svg">
<path opacity="0.2" d="M28.625 15C21.125 15 28.625 25.3125 21.125 25.3125H9.875C2.375 25.3125 9.875 15 2.375 15C9.875 15 2.375 4.6875 9.875 4.6875H21.125C28.625 4.6875 21.125 15 28.625 15Z" fill="#111C24"/>
<path d="M5.56018 15C5.95748 15.3268 6.27762 15.7374 6.49768 16.2023C7.06018 17.3625 7.06018 18.7805 7.06018 20.1562C7.06018 23.0051 7.17737 24.375 9.87268 24.375C10.1213 24.375 10.3598 24.4738 10.5356 24.6496C10.7114 24.8254 10.8102 25.0639 10.8102 25.3125C10.8102 25.5611 10.7114 25.7996 10.5356 25.9754C10.3598 26.1512 10.1213 26.25 9.87268 26.25C7.82424 26.25 6.43674 25.5305 5.74768 24.1102C5.18518 22.95 5.18518 21.532 5.18518 20.1562C5.18518 17.3074 5.06799 15.9375 2.37268 15.9375C2.12404 15.9375 1.88558 15.8387 1.70977 15.6629C1.53395 15.4871 1.43518 15.2486 1.43518 15C1.43518 14.7514 1.53395 14.5129 1.70977 14.3371C1.88558 14.1613 2.12404 14.0625 2.37268 14.0625C5.06799 14.0625 5.18518 12.6926 5.18518 9.84375C5.18518 8.47031 5.18518 7.05 5.74768 5.88984C6.43909 4.46953 7.82659 3.75 9.87502 3.75C10.1237 3.75 10.3621 3.84877 10.5379 4.02459C10.7138 4.2004 10.8125 4.43886 10.8125 4.6875C10.8125 4.93614 10.7138 5.1746 10.5379 5.35041C10.3621 5.52623 10.1237 5.625 9.87502 5.625C7.17971 5.625 7.06252 6.99492 7.06252 9.84375C7.06252 11.2172 7.06252 12.6375 6.50002 13.7977C6.27928 14.2629 5.95833 14.6735 5.56018 15ZM28.625 14.0625C25.9297 14.0625 25.8125 12.6926 25.8125 9.84375C25.8125 8.47031 25.8125 7.05 25.25 5.88984C24.561 4.46953 23.1735 3.75 21.125 3.75C20.8764 3.75 20.6379 3.84877 20.4621 4.02459C20.2863 4.2004 20.1875 4.43886 20.1875 4.6875C20.1875 4.93614 20.2863 5.1746 20.4621 5.35041C20.6379 5.52623 20.8764 5.625 21.125 5.625C23.8203 5.625 23.9375 6.99492 23.9375 9.84375C23.9375 11.2172 23.9375 12.6375 24.5 13.7977C24.7201 14.2626 25.0402 14.6732 25.4375 15C25.0402 15.3268 24.7201 15.7374 24.5 16.2023C23.9375 17.3625 23.9375 18.7805 23.9375 20.1562C23.9375 23.0051 23.8203 24.375 21.125 24.375C20.8764 24.375 20.6379 24.4738 20.4621 24.6496C20.2863 24.8254 20.1875 25.0639 20.1875 25.3125C20.1875 25.5611 20.2863 25.7996 20.4621 25.9754C20.6379 26.1512 20.8764 26.25 21.125 26.25C23.1735 26.25 24.561 25.5305 25.25 24.1102C25.8125 22.95 25.8125 21.532 25.8125 20.1562C25.8125 17.3074 25.9297 15.9375 28.625 15.9375C28.8737 15.9375 29.1121 15.8387 29.2879 15.6629C29.4638 15.4871 29.5625 15.2486 29.5625 15C29.5625 14.7514 29.4638 14.5129 29.2879 14.3371C29.1121 14.1613 28.8737 14.0625 28.625 14.0625Z" fill="#111C24"/>
</svg>
