<svg width="31" height="30" viewBox="0 0 31 30" fill="none" xmlns="http://www.w3.org/2000/svg">
<path opacity="0.2" d="M27.6875 15L21.125 25.3125H9.875L3.3125 15L9.875 4.6875H21.125L27.6875 15Z" fill="#111C24"/>
<path d="M10.666 5.19133L4.42344 14.9999L10.666 24.8085C10.7322 24.9125 10.7772 25.0284 10.7985 25.1498C10.8199 25.2711 10.8171 25.3955 10.7903 25.5157C10.7635 25.636 10.7133 25.7498 10.6425 25.8507C10.5717 25.9515 10.4817 26.0374 10.3777 26.1034C10.2277 26.1996 10.0532 26.2504 9.875 26.2499C9.71702 26.2501 9.56156 26.2103 9.42307 26.1343C9.28457 26.0583 9.16753 25.9485 9.08282 25.8152L2.52032 15.5027C2.42459 15.3522 2.37375 15.1776 2.37375 14.9993C2.37375 14.821 2.42459 14.6464 2.52032 14.496L9.08282 4.18352C9.2163 3.97373 9.42766 3.82556 9.6704 3.77161C9.91314 3.71765 10.1674 3.76234 10.3772 3.89583C10.5869 4.02931 10.7351 4.24067 10.7891 4.48341C10.843 4.72614 10.7983 4.98037 10.6648 5.19016L10.666 5.19133ZM28.4785 14.4972L21.916 4.18469C21.8499 4.08081 21.764 3.99097 21.6632 3.9203C21.5624 3.84962 21.4486 3.79949 21.3284 3.77278C21.0857 3.71883 20.8315 3.76351 20.6217 3.897C20.4119 4.03049 20.2637 4.24185 20.2098 4.48458C20.1558 4.72732 20.2005 4.98154 20.334 5.19133L26.5766 14.9999L20.334 24.8085C20.2678 24.9125 20.2228 25.0284 20.2015 25.1498C20.1801 25.2711 20.1829 25.3955 20.2097 25.5157C20.2365 25.636 20.2867 25.7498 20.3575 25.8507C20.4283 25.9515 20.5183 26.0374 20.6223 26.1034C20.7723 26.1996 20.9468 26.2504 21.125 26.2499C21.283 26.2501 21.4384 26.2103 21.5769 26.1343C21.7154 26.0583 21.8325 25.9485 21.9172 25.8152L28.4797 15.5027C28.575 15.3523 28.6255 15.1778 28.6253 14.9998C28.6251 14.8217 28.5742 14.6474 28.4785 14.4972Z" fill="#111C24"/>
</svg>
