<svg width="50" height="50" viewBox="0 0 50 50" fill="none" xmlns="http://www.w3.org/2000/svg">
<path d="M41.6875 6.04218H12.7735C12.3591 6.04218 11.9616 6.20679 11.6686 6.49982C11.3756 6.79285 11.211 7.19027 11.211 7.60468C11.211 8.01908 11.3756 8.4165 11.6686 8.70953C11.9616 9.00255 12.3591 9.16718 12.7735 9.16718H38.6235L6.56252 41.2297C6.40754 41.3723 6.28299 41.5448 6.19638 41.7368C6.10976 41.9288 6.06286 42.1364 6.0585 42.347C6.05414 42.5576 6.0924 42.7669 6.17099 42.9623C6.24958 43.1577 6.36687 43.3353 6.51581 43.4842C6.66476 43.6331 6.84228 43.7504 7.03771 43.829C7.23314 43.9076 7.44244 43.9459 7.65303 43.9415C7.86363 43.9371 8.07116 43.8902 8.26317 43.8036C8.45518 43.717 8.62769 43.5925 8.77033 43.4375L40.8328 11.375V37.2266C40.8328 37.641 40.9975 38.0384 41.2905 38.3314C41.5835 38.6244 41.9809 38.7891 42.3953 38.7891C42.8097 38.7891 43.2072 38.6244 43.5002 38.3314C43.7932 38.0384 43.9578 37.641 43.9578 37.2266V8.31405C43.957 7.71204 43.7176 7.13489 43.2921 6.70906C42.8665 6.28322 42.2895 6.04342 41.6875 6.04218Z" fill="#111C24"/>
</svg>
